{"title":"Toy Machine - Good &amp; Evil [2003][skateboarding].avi","uid":4697027,"size":732695552,"categoryP":"video","categoryS":"movies","magnet":"?xt=urn:btih:f8871de86ad8b41ed618dfed123ef0b6fb3e1e75&amp;dn=Toy+Machine+-+Good+%26+Evil+%5B2003%5D%5Bskateboarding%5D.avi&amp;tr=udp%3A%2F%2Ftracker.openbittorrent.com%3A80&amp;tr=udp%3A%2F%2Fopen.demonii.com%3A1337&amp;tr=udp%3A%2F%2Ftracker.coppersurfer.tk%3A6969&amp;tr=udp%3A%2F%2Fexodus.desync.com%3A6969","seeders":1,"leechers":0,"uploader":"highateus","files":1,"time":1233592604,"description":"Toy Machine Good And Evil DVD\nStarring Ed Templeton, Josh Harmony, Austin Stephens,\nDiego Bucchieri, Billy Marks, Johnny Layton and Matt Bennett.\n\n\n\nGeneral\n\nComplete name                    : Toy Machine - Good &amp; Evil [2003].avi\nFormat                           : AVI\nFormat/Info                      : Audio Video Interleave\nFile size                        : 699 MiB\nDuration                         : 36mn 17s\nOverall bit rate                 : 2691 Kbps\n\n\nVideo\n\nFormat                           : MPEG-4 Visual\nFormat profile                   : Streaming Video@L1\nFormat settings, BVOP            : Yes\nFormat settings, QPel            : No\nFormat settings, GMC             : No warppoints\nFormat settings, Matrix          : Default\nMuxing mode                      : Packed bitstream\nCodec ID                         : XVID\nCodec ID/Hint                    : XviD\nDuration                         : 36mn 17s\nBit rate                         : 2487 Kbps\nWidth                            : 720 pixels\nHeight                           : 480 pixels\nDisplay aspect ratio             : 1.500\nFrame rate                       : 29.970 fps\nStandard                         : NTSC\nResolution                       : 24 bits\nColorimetry                      : 4:2:0\nScan type                        : Progressive\nBits/(Pixel*Frame)               : 0.240\nStream size                      : 646 MiB (92%)\nWriting library                  : XviD 1.1.2 (UTC 2006-11-01)\n\n\nAudio\n\nFormat                           : MPEG Audio\nFormat version                   : Version 1\nFormat profile                   : Layer 3\nCodec ID                         : 55\nCodec ID/Hint                    : MP3\nDuration                         : 36mn 17s\nBit rate mode                    : Constant\nBit rate                         : 192 Kbps\nChannel(s)                       : 2 channels\nSampling rate                    : 44.1 KHz\nResolution                       : 16 bits\nVideo delay                      : 26ms\nStream size                      : 49.8 MiB (7%)\nAlignment                        : Split accross interleaves\nInterleave, duration             : 33 ms (1.00 video frame)\nTitle                            : Audio Stream\nWriting library                  : LAME3.92\n\n","torrent":{"xt":"urn:btih:f8871de86ad8b41ed618dfed123ef0b6fb3e1e75","amp;dn":"Toy+Machine+-+Good+%26+Evil+%5B2003%5D%5Bskateboarding%5D.avi","amp;tr":["udp%3A%2F%2Ftracker.openbittorrent.com%3A80","udp%3A%2F%2Fopen.demonii.com%3A1337","udp%3A%2F%2Ftracker.coppersurfer.tk%3A6969","udp%3A%2F%2Fexodus.desync.com%3A6969"],"infoHash":"f8871de86ad8b41ed618dfed123ef0b6fb3e1e75","infoHashBuffer":{"type":"Buffer","data":[248,135,29,232,106,216,180,30,214,24,223,237,18,62,240,182,251,62,30,117]},"announce":[],"urlList":[]}}